<svg version="1.1" xmlns="http://www.w3.org/2000/svg" viewBox="0 0 1162.0156201417162 411.61231382070514" width="2324.0312402834325" height="823.2246276414103">
  <!-- svg-source:excalidraw -->
  
  <defs>
    <style class="style-fonts">
      @font-face {
        font-family: "Virgil";
        src: url("https://excalidraw.com/Virgil.woff2");
      }
      @font-face {
        font-family: "Cascadia";
        src: url("https://excalidraw.com/Cascadia.woff2");
      }
      @font-face {
        font-family: "Assistant";
        src: url("https://excalidraw.com/Assistant-Regular.woff2");
      }
    </style>
    
  </defs>
  <g transform="translate(211.64988992750523 10) rotate(0 204.56982421875 29.64186889239022)"><text x="0" y="41.54604343957415" font-family="Virgil, Segoe UI Emoji" font-size="47.42699022782437px" fill="#1e1e1e" text-anchor="start" style="white-space: pre;" direction="ltr" dominant-baseline="alphabetic">cwxpd-3BDb2jXPk</text></g><g stroke-linecap="round" transform="translate(650.7517593081757 209.90183907756227) rotate(0 250.63193041677027 89)"><path d="M0 0 C176.09 0.81, 352.89 1.13, 501.26 0 M0 0 C106.47 -2.02, 212.26 -1.57, 501.26 0 M501.26 0 C500.82 58.1, 501.76 115.63, 501.26 178 M501.26 0 C499.93 63.54, 499.48 127.98, 501.26 178 M501.26 178 C398.1 176.84, 295.75 176.8, 0 178 M501.26 178 C300.67 178.29, 100.59 178.73, 0 178 M0 178 C-2.48 141.5, -1.86 107.57, 0 0 M0 178 C-1.01 115.67, -2.23 51.95, 0 0" stroke="#2f9e44" stroke-width="1" fill="none"></path></g><g transform="translate(655.7517593081757 226.90183907756227) rotate(0 240.23437499999977 72)"><text x="0" y="19.3125" font-family="Cascadia, Segoe UI Emoji" font-size="20px" fill="#2f9e44" text-anchor="start" style="white-space: pre;" direction="ltr" dominant-baseline="alphabetic">{</text><text x="0" y="43.3125" font-family="Cascadia, Segoe UI Emoji" font-size="20px" fill="#2f9e44" text-anchor="start" style="white-space: pre;" direction="ltr" dominant-baseline="alphabetic">  algorithm: "my-algo",</text><text x="0" y="67.3125" font-family="Cascadia, Segoe UI Emoji" font-size="20px" fill="#2f9e44" text-anchor="start" style="white-space: pre;" direction="ltr" dominant-baseline="alphabetic">  promoted: false,</text><text x="0" y="91.3125" font-family="Cascadia, Segoe UI Emoji" font-size="20px" fill="#2f9e44" text-anchor="start" style="white-space: pre;" direction="ltr" dominant-baseline="alphabetic">  timestamp: "2024-05-22 15:13:56+00:00",</text><text x="0" y="115.3125" font-family="Cascadia, Segoe UI Emoji" font-size="20px" fill="#2f9e44" text-anchor="start" style="white-space: pre;" direction="ltr" dominant-baseline="alphabetic">  user_id: 213123</text><text x="0" y="139.3125" font-family="Cascadia, Segoe UI Emoji" font-size="20px" fill="#2f9e44" text-anchor="start" style="white-space: pre;" direction="ltr" dominant-baseline="alphabetic">}</text></g><g stroke-linecap="round" transform="translate(10 199.61231382070514) rotate(0 197.97741132314854 101)"><path d="M0 0 C138.57 -1.77, 276.92 -1.83, 395.95 0 M0 0 C128.34 0.27, 256.7 0.46, 395.95 0 M395.95 0 C394.7 59.35, 394.66 121.28, 395.95 202 M395.95 0 C397.35 73.92, 396.94 149.27, 395.95 202 M395.95 202 C278.73 200.07, 164.24 200.75, 0 202 M395.95 202 C271.33 203.37, 145.76 203.52, 0 202 M0 202 C-0.57 149.5, 0.99 96.1, 0 0 M0 202 C1.08 130.35, 1.32 60.53, 0 0" stroke="#1971c2" stroke-width="1" fill="none"></path></g><g transform="translate(15 204.61231382070514) rotate(0 187.5 96)"><text x="0" y="15.45" font-family="Cascadia, Segoe UI Emoji" font-size="16px" fill="#1971c2" text-anchor="start" style="white-space: pre;" direction="ltr" dominant-baseline="alphabetic">{</text><text x="0" y="34.65" font-family="Cascadia, Segoe UI Emoji" font-size="16px" fill="#1971c2" text-anchor="start" style="white-space: pre;" direction="ltr" dominant-baseline="alphabetic">  algorithm: "my-algo",</text><text x="0" y="53.849999999999994" font-family="Cascadia, Segoe UI Emoji" font-size="16px" fill="#1971c2" text-anchor="start" style="white-space: pre;" direction="ltr" dominant-baseline="alphabetic">  user_id: {</text><text x="0" y="73.05" font-family="Cascadia, Segoe UI Emoji" font-size="16px" fill="#1971c2" text-anchor="start" style="white-space: pre;" direction="ltr" dominant-baseline="alphabetic">    __hcf: 1, i: 0, l: 3, t: "int"</text><text x="0" y="92.25" font-family="Cascadia, Segoe UI Emoji" font-size="16px" fill="#1971c2" text-anchor="start" style="white-space: pre;" direction="ltr" dominant-baseline="alphabetic">  }  </text><text x="0" y="111.45" font-family="Cascadia, Segoe UI Emoji" font-size="16px" fill="#1971c2" text-anchor="start" style="white-space: pre;" direction="ltr" dominant-baseline="alphabetic">  timestamp: {</text><text x="0" y="130.64999999999998" font-family="Cascadia, Segoe UI Emoji" font-size="16px" fill="#1971c2" text-anchor="start" style="white-space: pre;" direction="ltr" dominant-baseline="alphabetic">    __hcf: 1, i: 3, l: 6, t: "datetime" </text><text x="0" y="149.85" font-family="Cascadia, Segoe UI Emoji" font-size="16px" fill="#1971c2" text-anchor="start" style="white-space: pre;" direction="ltr" dominant-baseline="alphabetic">  },</text><text x="0" y="169.04999999999998" font-family="Cascadia, Segoe UI Emoji" font-size="16px" fill="#1971c2" text-anchor="start" style="white-space: pre;" direction="ltr" dominant-baseline="alphabetic">  promoted: false</text><text x="0" y="188.24999999999997" font-family="Cascadia, Segoe UI Emoji" font-size="16px" fill="#1971c2" text-anchor="start" style="white-space: pre;" direction="ltr" dominant-baseline="alphabetic">}</text></g><g mask="url(#mask-lEVSABQGRn8iyTRTsOfpO)" stroke-linecap="round"><g transform="translate(249.84321368943574 70.7114463119575) rotate(0 0.5599712982425444 55.98703037665257)"><path d="M1.03 0.2 C1.39 19.05, 1.23 94.21, 1.39 112.73 M0.12 -0.74 C0.4 17.8, 0.32 92.16, 0.58 111" stroke="#1971c2" stroke-width="1" fill="none"></path></g><g transform="translate(249.84321368943574 70.7114463119575) rotate(0 0.5599712982425444 55.98703037665257)"><path d="M-8.1 87.56 C-5.77 93.51, -2.78 100.1, 0.58 111 M-8.1 87.56 C-6.69 92.51, -2.79 98.59, 0.58 111" stroke="#1971c2" stroke-width="1" fill="none"></path></g><g transform="translate(249.84321368943574 70.7114463119575) rotate(0 0.5599712982425444 55.98703037665257)"><path d="M9 87.46 C7.26 93.59, 6.18 100.2, 0.58 111 M9 87.46 C6.21 92.55, 5.92 98.65, 0.58 111" stroke="#1971c2" stroke-width="1" fill="none"></path></g></g><mask id="mask-lEVSABQGRn8iyTRTsOfpO"><rect x="0" y="0" fill="#fff" width="350.96315628592083" height="282.68550706526264"></rect><rect x="208.2156849876783" y="117.09847668861005" fill="#000" width="84.375" height="19.2" opacity="1"></rect></mask><g transform="translate(208.2156849876783 117.09847668861005) rotate(0 42.37994303933351 9.607951664859456)"><text x="42.1875" y="15.45" font-family="Cascadia, Segoe UI Emoji" font-size="16px" fill="#1971c2" text-anchor="middle" style="white-space: pre;" direction="ltr" dominant-baseline="alphabetic">db lookup</text></g><g stroke-linecap="round"><g transform="translate(216.58295700209737 69.80716015149301) rotate(0 63.590441540239226 0.03262325650570119)"><path d="M0.25 0 C21.51 0.03, 106.58 -0.47, 127.66 -0.41 M-1.07 -1.04 C20.05 -0.8, 105.82 0.4, 126.97 0.87" stroke="#1971c2" stroke-width="4" fill="none"></path></g></g><mask></mask><g stroke-linecap="round"><g transform="translate(415.5084097550207 370.67212170140147) rotate(0 109.27533312152195 -1.0912834110602034)"><path d="M0 0 C62.16 0.16, 125.21 -2.77, 218.55 -2.18 M0 0 C61.08 -1.99, 123.96 -3.52, 218.55 -2.18" stroke="#2f9e44" stroke-width="4" fill="none"></path></g><g transform="translate(415.5084097550207 370.67212170140147) rotate(0 109.27533312152195 -1.0912834110602034)"><path d="M195 6.22 C201.04 4.54, 208.11 -0.53, 218.55 -2.18 M195 6.22 C200.77 3.91, 208.54 0.48, 218.55 -2.18" stroke="#2f9e44" stroke-width="4" fill="none"></path></g><g transform="translate(415.5084097550207 370.67212170140147) rotate(0 109.27533312152195 -1.0912834110602034)"><path d="M195.11 -10.88 C201.16 -7.65, 208.2 -7.8, 218.55 -2.18 M195.11 -10.88 C200.68 -8.34, 208.43 -6.93, 218.55 -2.18" stroke="#2f9e44" stroke-width="4" fill="none"></path></g></g><mask></mask><g stroke-linecap="round"><g transform="translate(341.45454726389653 274.6362328854618) rotate(0 34.274053428935986 -100.47488379919167)"><path d="M0 0 C9.32 -4.09, 44.5 8.97, 55.92 -24.52 C67.35 -58.02, 66.44 -171.55, 68.55 -200.95 M0 0 C9.32 -4.09, 44.5 8.97, 55.92 -24.52 C67.35 -58.02, 66.44 -171.55, 68.55 -200.95" stroke="#f08c00" stroke-width="4" fill="none"></path></g><g transform="translate(341.45454726389653 274.6362328854618) rotate(0 34.274053428935986 -100.47488379919167)"><path d="M76.31 -177.18 C74.11 -183.92, 71.91 -190.65, 68.55 -200.95 M76.31 -177.18 C73.27 -186.49, 70.23 -195.79, 68.55 -200.95" stroke="#f08c00" stroke-width="4" fill="none"></path></g><g transform="translate(341.45454726389653 274.6362328854618) rotate(0 34.274053428935986 -100.47488379919167)"><path d="M59.22 -177.76 C61.86 -184.33, 64.5 -190.9, 68.55 -200.95 M59.22 -177.76 C62.87 -186.84, 66.52 -195.92, 68.55 -200.95" stroke="#f08c00" stroke-width="4" fill="none"></path></g></g><mask></mask><g stroke-linecap="round"><g transform="translate(369.2783612390572 70.49739226325278) rotate(0 46.71652716817084 -0.13782562935421083)"><path d="M0 0 C26.31 1.15, 49.98 -1.78, 93.43 -0.28 M0 0 C30.55 -0.02, 60.13 -0.51, 93.43 -0.28" stroke="#f08c00" stroke-width="4" fill="none"></path></g></g><mask></mask><g stroke-linecap="round"><g transform="translate(474.4414368305888 69.9951501527604) rotate(0 71.99162719742822 -0.275651258708308)"><path d="M0 0 C35.78 1.46, 68.41 1.95, 143.98 -0.55 M0 0 C35.73 0.15, 69.01 0.21, 143.98 -0.55" stroke="#e8590c" stroke-width="4" fill="none"></path></g></g><mask></mask><g stroke-linecap="round"><g transform="translate(388.42552174779803 327.2177706812272) rotate(0 75.2337100786981 -127.36148349474388)"><path d="M0 0 C15.64 -5.77, 68.76 7.84, 93.84 -34.61 C118.91 -77.06, 141.03 -218.04, 150.47 -254.72 M0 0 C15.64 -5.77, 68.76 7.84, 93.84 -34.61 C118.91 -77.06, 141.03 -218.04, 150.47 -254.72" stroke="#e8590c" stroke-width="4" fill="none"></path></g><g transform="translate(388.42552174779803 327.2177706812272) rotate(0 75.2337100786981 -127.36148349474388)"><path d="M154.03 -229.98 C152.78 -238.67, 151.53 -247.36, 150.47 -254.72 M154.03 -229.98 C152.83 -238.31, 151.63 -246.64, 150.47 -254.72" stroke="#e8590c" stroke-width="4" fill="none"></path></g><g transform="translate(388.42552174779803 327.2177706812272) rotate(0 75.2337100786981 -127.36148349474388)"><path d="M137.29 -233.48 C141.92 -240.94, 146.54 -248.4, 150.47 -254.72 M137.29 -233.48 C141.72 -240.63, 146.16 -247.79, 150.47 -254.72" stroke="#e8590c" stroke-width="4" fill="none"></path></g></g><mask></mask><g stroke-linecap="round" transform="translate(158.57690026529144 108.00703486592147) rotate(0 17.75830224371066 17.75830224371066)"><path d="M35.52 17.76 C35.52 18.79, 35.43 19.83, 35.25 20.84 C35.07 21.85, 34.8 22.87, 34.45 23.83 C34.09 24.8, 33.65 25.75, 33.14 26.64 C32.62 27.53, 32.02 28.39, 31.36 29.17 C30.7 29.96, 29.96 30.7, 29.17 31.36 C28.39 32.02, 27.53 32.62, 26.64 33.14 C25.75 33.65, 24.8 34.09, 23.83 34.45 C22.87 34.8, 21.85 35.07, 20.84 35.25 C19.83 35.43, 18.79 35.52, 17.76 35.52 C16.73 35.52, 15.69 35.43, 14.67 35.25 C13.66 35.07, 12.65 34.8, 11.68 34.45 C10.72 34.09, 9.77 33.65, 8.88 33.14 C7.99 32.62, 7.13 32.02, 6.34 31.36 C5.56 30.7, 4.82 29.96, 4.15 29.17 C3.49 28.39, 2.89 27.53, 2.38 26.64 C1.87 25.75, 1.42 24.8, 1.07 23.83 C0.72 22.87, 0.45 21.85, 0.27 20.84 C0.09 19.83, 0 18.79, 0 17.76 C0 16.73, 0.09 15.69, 0.27 14.67 C0.45 13.66, 0.72 12.65, 1.07 11.68 C1.42 10.72, 1.87 9.77, 2.38 8.88 C2.89 7.99, 3.49 7.13, 4.15 6.34 C4.82 5.56, 5.56 4.82, 6.34 4.15 C7.13 3.49, 7.99 2.89, 8.88 2.38 C9.77 1.87, 10.72 1.42, 11.68 1.07 C12.65 0.72, 13.66 0.45, 14.67 0.27 C15.69 0.09, 16.73 0, 17.76 0 C18.79 0, 19.83 0.09, 20.84 0.27 C21.85 0.45, 22.87 0.72, 23.83 1.07 C24.8 1.42, 25.75 1.87, 26.64 2.38 C27.53 2.89, 28.39 3.49, 29.17 4.15 C29.96 4.82, 30.7 5.56, 31.36 6.34 C32.02 7.13, 32.62 7.99, 33.14 8.88 C33.65 9.77, 34.09 10.72, 34.45 11.68 C34.8 12.65, 35.07 13.66, 35.25 14.67 C35.43 15.69, 35.47 17.24, 35.52 17.76 C35.56 18.27, 35.56 17.24, 35.52 17.76" stroke="none" stroke-width="0" fill="#1971c2"></path><path d="M35.52 17.76 C35.52 18.79, 35.43 19.83, 35.25 20.84 C35.07 21.85, 34.8 22.87, 34.45 23.83 C34.09 24.8, 33.65 25.75, 33.14 26.64 C32.62 27.53, 32.02 28.39, 31.36 29.17 C30.7 29.96, 29.96 30.7, 29.17 31.36 C28.39 32.02, 27.53 32.62, 26.64 33.14 C25.75 33.65, 24.8 34.09, 23.83 34.45 C22.87 34.8, 21.85 35.07, 20.84 35.25 C19.83 35.43, 18.79 35.52, 17.76 35.52 C16.73 35.52, 15.69 35.43, 14.67 35.25 C13.66 35.07, 12.65 34.8, 11.68 34.45 C10.72 34.09, 9.77 33.65, 8.88 33.14 C7.99 32.62, 7.13 32.02, 6.34 31.36 C5.56 30.7, 4.82 29.96, 4.15 29.17 C3.49 28.39, 2.89 27.53, 2.38 26.64 C1.87 25.75, 1.42 24.8, 1.07 23.83 C0.72 22.87, 0.45 21.85, 0.27 20.84 C0.09 19.83, 0 18.79, 0 17.76 C0 16.73, 0.09 15.69, 0.27 14.67 C0.45 13.66, 0.72 12.65, 1.07 11.68 C1.42 10.72, 1.87 9.77, 2.38 8.88 C2.89 7.99, 3.49 7.13, 4.15 6.34 C4.82 5.56, 5.56 4.82, 6.34 4.15 C7.13 3.49, 7.99 2.89, 8.88 2.38 C9.77 1.87, 10.72 1.42, 11.68 1.07 C12.65 0.72, 13.66 0.45, 14.67 0.27 C15.69 0.09, 16.73 0, 17.76 0 C18.79 0, 19.83 0.09, 20.84 0.27 C21.85 0.45, 22.87 0.72, 23.83 1.07 C24.8 1.42, 25.75 1.87, 26.64 2.38 C27.53 2.89, 28.39 3.49, 29.17 4.15 C29.96 4.82, 30.7 5.56, 31.36 6.34 C32.02 7.13, 32.62 7.99, 33.14 8.88 C33.65 9.77, 34.09 10.72, 34.45 11.68 C34.8 12.65, 35.07 13.66, 35.25 14.67 C35.43 15.69, 35.47 17.24, 35.52 17.76 C35.56 18.27, 35.56 17.24, 35.52 17.76" stroke="#ffffff" stroke-width="2" fill="none"></path></g><g transform="translate(172.95299125761403 118.89751035993322) rotate(0 3.3251953125 6.810810810810835)"><text x="3.3251953125" y="10.961148648648644" font-family="Cascadia, Segoe UI Emoji" font-size="11.351351351351347px" fill="#ffffff" text-anchor="middle" style="white-space: pre;" direction="ltr" dominant-baseline="alphabetic">1</text></g><g stroke-linecap="round" transform="translate(410.95047037286486 125.93072786485709) rotate(0 17.75830224371066 17.75830224371066)"><path d="M35.52 17.76 C35.52 18.79, 35.43 19.83, 35.25 20.84 C35.07 21.85, 34.8 22.87, 34.45 23.83 C34.09 24.8, 33.65 25.75, 33.14 26.64 C32.62 27.53, 32.02 28.39, 31.36 29.17 C30.7 29.96, 29.96 30.7, 29.17 31.36 C28.39 32.02, 27.53 32.62, 26.64 33.14 C25.75 33.65, 24.8 34.09, 23.83 34.45 C22.87 34.8, 21.85 35.07, 20.84 35.25 C19.83 35.43, 18.79 35.52, 17.76 35.52 C16.73 35.52, 15.69 35.43, 14.67 35.25 C13.66 35.07, 12.65 34.8, 11.68 34.45 C10.72 34.09, 9.77 33.65, 8.88 33.14 C7.99 32.62, 7.13 32.02, 6.34 31.36 C5.56 30.7, 4.82 29.96, 4.15 29.17 C3.49 28.39, 2.89 27.53, 2.38 26.64 C1.87 25.75, 1.42 24.8, 1.07 23.83 C0.72 22.87, 0.45 21.85, 0.27 20.84 C0.09 19.83, 0 18.79, 0 17.76 C0 16.73, 0.09 15.69, 0.27 14.67 C0.45 13.66, 0.72 12.65, 1.07 11.68 C1.42 10.72, 1.87 9.77, 2.38 8.88 C2.89 7.99, 3.49 7.13, 4.15 6.34 C4.82 5.56, 5.56 4.82, 6.34 4.15 C7.13 3.49, 7.99 2.89, 8.88 2.38 C9.77 1.87, 10.72 1.42, 11.68 1.07 C12.65 0.72, 13.66 0.45, 14.67 0.27 C15.69 0.09, 16.73 0, 17.76 0 C18.79 0, 19.83 0.09, 20.84 0.27 C21.85 0.45, 22.87 0.72, 23.83 1.07 C24.8 1.42, 25.75 1.87, 26.64 2.38 C27.53 2.89, 28.39 3.49, 29.17 4.15 C29.96 4.82, 30.7 5.56, 31.36 6.34 C32.02 7.13, 32.62 7.99, 33.14 8.88 C33.65 9.77, 34.09 10.72, 34.45 11.68 C34.8 12.65, 35.07 13.66, 35.25 14.67 C35.43 15.69, 35.47 17.24, 35.52 17.76 C35.56 18.27, 35.56 17.24, 35.52 17.76" stroke="none" stroke-width="0" fill="#f08c00"></path><path d="M35.52 17.76 C35.52 18.79, 35.43 19.83, 35.25 20.84 C35.07 21.85, 34.8 22.87, 34.45 23.83 C34.09 24.8, 33.65 25.75, 33.14 26.64 C32.62 27.53, 32.02 28.39, 31.36 29.17 C30.7 29.96, 29.96 30.7, 29.17 31.36 C28.39 32.02, 27.53 32.62, 26.64 33.14 C25.75 33.65, 24.8 34.09, 23.83 34.45 C22.87 34.8, 21.85 35.07, 20.84 35.25 C19.83 35.43, 18.79 35.52, 17.76 35.52 C16.73 35.52, 15.69 35.43, 14.67 35.25 C13.66 35.07, 12.65 34.8, 11.68 34.45 C10.72 34.09, 9.77 33.65, 8.88 33.14 C7.99 32.62, 7.13 32.02, 6.34 31.36 C5.56 30.7, 4.82 29.96, 4.15 29.17 C3.49 28.39, 2.89 27.53, 2.38 26.64 C1.87 25.75, 1.42 24.8, 1.07 23.83 C0.72 22.87, 0.45 21.85, 0.27 20.84 C0.09 19.83, 0 18.79, 0 17.76 C0 16.73, 0.09 15.69, 0.27 14.67 C0.45 13.66, 0.72 12.65, 1.07 11.68 C1.42 10.72, 1.87 9.77, 2.38 8.88 C2.89 7.99, 3.49 7.13, 4.15 6.34 C4.82 5.56, 5.56 4.82, 6.34 4.15 C7.13 3.49, 7.99 2.89, 8.88 2.38 C9.77 1.87, 10.72 1.42, 11.68 1.07 C12.65 0.72, 13.66 0.45, 14.67 0.27 C15.69 0.09, 16.73 0, 17.76 0 C18.79 0, 19.83 0.09, 20.84 0.27 C21.85 0.45, 22.87 0.72, 23.83 1.07 C24.8 1.42, 25.75 1.87, 26.64 2.38 C27.53 2.89, 28.39 3.49, 29.17 4.15 C29.96 4.82, 30.7 5.56, 31.36 6.34 C32.02 7.13, 32.62 7.99, 33.14 8.88 C33.65 9.77, 34.09 10.72, 34.45 11.68 C34.8 12.65, 35.07 13.66, 35.25 14.67 C35.43 15.69, 35.47 17.24, 35.52 17.76 C35.56 18.27, 35.56 17.24, 35.52 17.76" stroke="#ffffff" stroke-width="2" fill="none"></path></g><g transform="translate(425.32656136518744 136.82120335886884) rotate(0 3.3251953125 6.810810810810835)"><text x="3.3251953125" y="10.961148648648644" font-family="Cascadia, Segoe UI Emoji" font-size="11.351351351351347px" fill="#ffffff" text-anchor="middle" style="white-space: pre;" direction="ltr" dominant-baseline="alphabetic">2</text></g><g stroke-linecap="round" transform="translate(529.0055432947561 153.54674319883748) rotate(0 17.75830224371066 17.75830224371066)"><path d="M35.52 17.76 C35.52 18.79, 35.43 19.83, 35.25 20.84 C35.07 21.85, 34.8 22.87, 34.45 23.83 C34.09 24.8, 33.65 25.75, 33.14 26.64 C32.62 27.53, 32.02 28.39, 31.36 29.17 C30.7 29.96, 29.96 30.7, 29.17 31.36 C28.39 32.02, 27.53 32.62, 26.64 33.14 C25.75 33.65, 24.8 34.09, 23.83 34.45 C22.87 34.8, 21.85 35.07, 20.84 35.25 C19.83 35.43, 18.79 35.52, 17.76 35.52 C16.73 35.52, 15.69 35.43, 14.67 35.25 C13.66 35.07, 12.65 34.8, 11.68 34.45 C10.72 34.09, 9.77 33.65, 8.88 33.14 C7.99 32.62, 7.13 32.02, 6.34 31.36 C5.56 30.7, 4.82 29.96, 4.15 29.17 C3.49 28.39, 2.89 27.53, 2.38 26.64 C1.87 25.75, 1.42 24.8, 1.07 23.83 C0.72 22.87, 0.45 21.85, 0.27 20.84 C0.09 19.83, 0 18.79, 0 17.76 C0 16.73, 0.09 15.69, 0.27 14.67 C0.45 13.66, 0.72 12.65, 1.07 11.68 C1.42 10.72, 1.87 9.77, 2.38 8.88 C2.89 7.99, 3.49 7.13, 4.15 6.34 C4.82 5.56, 5.56 4.82, 6.34 4.15 C7.13 3.49, 7.99 2.89, 8.88 2.38 C9.77 1.87, 10.72 1.42, 11.68 1.07 C12.65 0.72, 13.66 0.45, 14.67 0.27 C15.69 0.09, 16.73 0, 17.76 0 C18.79 0, 19.83 0.09, 20.84 0.27 C21.85 0.45, 22.87 0.72, 23.83 1.07 C24.8 1.42, 25.75 1.87, 26.64 2.38 C27.53 2.89, 28.39 3.49, 29.17 4.15 C29.96 4.82, 30.7 5.56, 31.36 6.34 C32.02 7.13, 32.62 7.99, 33.14 8.88 C33.65 9.77, 34.09 10.72, 34.45 11.68 C34.8 12.65, 35.07 13.66, 35.25 14.67 C35.43 15.69, 35.47 17.24, 35.52 17.76 C35.56 18.27, 35.56 17.24, 35.52 17.76" stroke="none" stroke-width="0" fill="#e03131"></path><path d="M35.52 17.76 C35.52 18.79, 35.43 19.83, 35.25 20.84 C35.07 21.85, 34.8 22.87, 34.45 23.83 C34.09 24.8, 33.65 25.75, 33.14 26.64 C32.62 27.53, 32.02 28.39, 31.36 29.17 C30.7 29.96, 29.96 30.7, 29.17 31.36 C28.39 32.02, 27.53 32.62, 26.64 33.14 C25.75 33.65, 24.8 34.09, 23.83 34.45 C22.87 34.8, 21.85 35.07, 20.84 35.25 C19.83 35.43, 18.79 35.52, 17.76 35.52 C16.73 35.52, 15.69 35.43, 14.67 35.25 C13.66 35.07, 12.65 34.8, 11.68 34.45 C10.72 34.09, 9.77 33.65, 8.88 33.14 C7.99 32.62, 7.13 32.02, 6.34 31.36 C5.56 30.7, 4.82 29.96, 4.15 29.17 C3.49 28.39, 2.89 27.53, 2.38 26.64 C1.87 25.75, 1.42 24.8, 1.07 23.83 C0.72 22.87, 0.45 21.85, 0.27 20.84 C0.09 19.83, 0 18.79, 0 17.76 C0 16.73, 0.09 15.69, 0.27 14.67 C0.45 13.66, 0.72 12.65, 1.07 11.68 C1.42 10.72, 1.87 9.77, 2.38 8.88 C2.89 7.99, 3.49 7.13, 4.15 6.34 C4.82 5.56, 5.56 4.82, 6.34 4.15 C7.13 3.49, 7.99 2.89, 8.88 2.38 C9.77 1.87, 10.72 1.42, 11.68 1.07 C12.65 0.72, 13.66 0.45, 14.67 0.27 C15.69 0.09, 16.73 0, 17.76 0 C18.79 0, 19.83 0.09, 20.84 0.27 C21.85 0.45, 22.87 0.72, 23.83 1.07 C24.8 1.42, 25.75 1.87, 26.64 2.38 C27.53 2.89, 28.39 3.49, 29.17 4.15 C29.96 4.82, 30.7 5.56, 31.36 6.34 C32.02 7.13, 32.62 7.99, 33.14 8.88 C33.65 9.77, 34.09 10.72, 34.45 11.68 C34.8 12.65, 35.07 13.66, 35.25 14.67 C35.43 15.69, 35.47 17.24, 35.52 17.76 C35.56 18.27, 35.56 17.24, 35.52 17.76" stroke="#ffffff" stroke-width="2" fill="none"></path></g><g transform="translate(543.3816342870787 164.43721869284923) rotate(0 3.3251953125 6.810810810810835)"><text x="3.3251953125" y="10.961148648648644" font-family="Cascadia, Segoe UI Emoji" font-size="11.351351351351347px" fill="#ffffff" text-anchor="middle" style="white-space: pre;" direction="ltr" dominant-baseline="alphabetic">3</text></g><g stroke-linecap="round" transform="translate(551.0152361054679 317.0757922304142) rotate(0 17.75830224371066 17.75830224371066)"><path d="M35.52 17.76 C35.52 18.79, 35.43 19.83, 35.25 20.84 C35.07 21.85, 34.8 22.87, 34.45 23.83 C34.09 24.8, 33.65 25.75, 33.14 26.64 C32.62 27.53, 32.02 28.39, 31.36 29.17 C30.7 29.96, 29.96 30.7, 29.17 31.36 C28.39 32.02, 27.53 32.62, 26.64 33.14 C25.75 33.65, 24.8 34.09, 23.83 34.45 C22.87 34.8, 21.85 35.07, 20.84 35.25 C19.83 35.43, 18.79 35.52, 17.76 35.52 C16.73 35.52, 15.69 35.43, 14.67 35.25 C13.66 35.07, 12.65 34.8, 11.68 34.45 C10.72 34.09, 9.77 33.65, 8.88 33.14 C7.99 32.62, 7.13 32.02, 6.34 31.36 C5.56 30.7, 4.82 29.96, 4.15 29.17 C3.49 28.39, 2.89 27.53, 2.38 26.64 C1.87 25.75, 1.42 24.8, 1.07 23.83 C0.72 22.87, 0.45 21.85, 0.27 20.84 C0.09 19.83, 0 18.79, 0 17.76 C0 16.73, 0.09 15.69, 0.27 14.67 C0.45 13.66, 0.72 12.65, 1.07 11.68 C1.42 10.72, 1.87 9.77, 2.38 8.88 C2.89 7.99, 3.49 7.13, 4.15 6.34 C4.82 5.56, 5.56 4.82, 6.34 4.15 C7.13 3.49, 7.99 2.89, 8.88 2.38 C9.77 1.87, 10.72 1.42, 11.68 1.07 C12.65 0.72, 13.66 0.45, 14.67 0.27 C15.69 0.09, 16.73 0, 17.76 0 C18.79 0, 19.83 0.09, 20.84 0.27 C21.85 0.45, 22.87 0.72, 23.83 1.07 C24.8 1.42, 25.75 1.87, 26.64 2.38 C27.53 2.89, 28.39 3.49, 29.17 4.15 C29.96 4.82, 30.7 5.56, 31.36 6.34 C32.02 7.13, 32.62 7.99, 33.14 8.88 C33.65 9.77, 34.09 10.72, 34.45 11.68 C34.8 12.65, 35.07 13.66, 35.25 14.67 C35.43 15.69, 35.47 17.24, 35.52 17.76 C35.56 18.27, 35.56 17.24, 35.52 17.76" stroke="none" stroke-width="0" fill="#099268"></path><path d="M35.52 17.76 C35.52 18.79, 35.43 19.83, 35.25 20.84 C35.07 21.85, 34.8 22.87, 34.45 23.83 C34.09 24.8, 33.65 25.75, 33.14 26.64 C32.62 27.53, 32.02 28.39, 31.36 29.17 C30.7 29.96, 29.96 30.7, 29.17 31.36 C28.39 32.02, 27.53 32.62, 26.64 33.14 C25.75 33.65, 24.8 34.09, 23.83 34.45 C22.87 34.8, 21.85 35.07, 20.84 35.25 C19.83 35.43, 18.79 35.52, 17.76 35.52 C16.73 35.52, 15.69 35.43, 14.67 35.25 C13.66 35.07, 12.65 34.8, 11.68 34.45 C10.72 34.09, 9.77 33.65, 8.88 33.14 C7.99 32.62, 7.13 32.02, 6.34 31.36 C5.56 30.7, 4.82 29.96, 4.15 29.17 C3.49 28.39, 2.89 27.53, 2.38 26.64 C1.87 25.75, 1.42 24.8, 1.07 23.83 C0.72 22.87, 0.45 21.85, 0.27 20.84 C0.09 19.83, 0 18.79, 0 17.76 C0 16.73, 0.09 15.69, 0.27 14.67 C0.45 13.66, 0.72 12.65, 1.07 11.68 C1.42 10.72, 1.87 9.77, 2.38 8.88 C2.89 7.99, 3.49 7.13, 4.15 6.34 C4.82 5.56, 5.56 4.82, 6.34 4.15 C7.13 3.49, 7.99 2.89, 8.88 2.38 C9.77 1.87, 10.72 1.42, 11.68 1.07 C12.65 0.72, 13.66 0.45, 14.67 0.27 C15.69 0.09, 16.73 0, 17.76 0 C18.79 0, 19.83 0.09, 20.84 0.27 C21.85 0.45, 22.87 0.72, 23.83 1.07 C24.8 1.42, 25.75 1.87, 26.64 2.38 C27.53 2.89, 28.39 3.49, 29.17 4.15 C29.96 4.82, 30.7 5.56, 31.36 6.34 C32.02 7.13, 32.62 7.99, 33.14 8.88 C33.65 9.77, 34.09 10.72, 34.45 11.68 C34.8 12.65, 35.07 13.66, 35.25 14.67 C35.43 15.69, 35.47 17.24, 35.52 17.76 C35.56 18.27, 35.56 17.24, 35.52 17.76" stroke="#ffffff" stroke-width="2" fill="none"></path></g><g transform="translate(565.3913270977905 327.96626772442596) rotate(0 3.3251953125 6.810810810810835)"><text x="3.3251953125" y="10.961148648648644" font-family="Cascadia, Segoe UI Emoji" font-size="11.351351351351347px" fill="#ffffff" text-anchor="middle" style="white-space: pre;" direction="ltr" dominant-baseline="alphabetic">4</text></g></svg>